<svg aria-hidden="true" style="position: absolute; width: 0; height: 0; overflow: hidden;" version="1.1" xmlns="http://www.w3.org/2000/svg" xmlns:xlink="http://www.w3.org/1999/xlink">
<defs>
<symbol id="icon-arrow-down" viewBox="0 0 32 32">
<path fill="none" stroke="#fff" style="stroke: var(--color1, #fff)" stroke-linejoin="miter" stroke-linecap="butt" stroke-miterlimit="4" stroke-width="4.5714" d="M2.286 8l13.714 13.714 13.714-13.714"></path>
</symbol>
<symbol id="icon-arrow-up" viewBox="0 0 32 32">
<path d="M32 16c0 8.837-7.163 16-16 16s-16-7.163-16-16c0-8.837 7.163-16 16-16s16 7.163 16 16z"></path>
<path fill="none" stroke="#fff" style="stroke: var(--color1, #fff)" stroke-linejoin="miter" stroke-linecap="butt" stroke-miterlimit="4" stroke-width="1.6" d="M11.2 18.4l4.8-4.8 4.8 4.8"></path>
</symbol>
<symbol id="icon-moon" viewBox="0 0 32 32">
<path fill="#fff" style="fill: var(--color1, #fff)" d="M30.209 23.155c-0.198-0.241-0.495-0.393-0.828-0.393-0.129 0-0.253 0.023-0.367 0.065l0.007-0.002c-1.118 0.407-2.409 0.643-3.754 0.643-0.024 0-0.047-0-0.071-0l0.004 0c-6.471 0-11.733-5.265-11.733-11.733 0-0.003 0-0.007 0-0.011 0-4.013 2.021-7.555 5.101-9.662l0.040-0.026c0.283-0.195 0.466-0.517 0.466-0.882 0-0.535-0.393-0.977-0.905-1.056l-0.006-0.001c-0.423-0.061-0.912-0.096-1.409-0.096-0.030 0-0.061 0-0.091 0l0.005-0c-8.824 0-16 7.176-16 16s7.176 16 16 16c5.6 0 10.693-2.845 13.624-7.612 0.099-0.159 0.157-0.352 0.157-0.559 0-0.256-0.090-0.492-0.24-0.676l0.002 0.002z"></path>
</symbol>
<symbol id="icon-refresh" viewBox="0 0 32 32">
<path fill="#fff" style="fill: var(--color1, #fff)" opacity="0.5" d="M12.779 18.964c0.204 0 0.37 0.166 0.37 0.37 0 0.102-0.041 0.194-0.108 0.261v0l-4.167 3.922c1.854 1.767 4.37 2.853 7.139 2.853 4.62 0 8.534-3.025 9.868-7.203l0.020-0.073 4.244 1.326c-1.934 6.073-7.525 10.396-14.126 10.396-4.047 0-7.714-1.625-10.385-4.257l0.002 0.002-3.82 3.595c-0.067 0.067-0.159 0.108-0.261 0.108-0.204 0-0.37-0.166-0.37-0.37 0-0.001 0-0.001 0-0.002v0-10.93h11.591zM26.32 5.399l3.863-3.696c0.067-0.067 0.159-0.108 0.261-0.108 0.203 0 0.369 0.164 0.37 0.368v11.076h-11.552c-0 0-0.001 0-0.002 0-0.204 0-0.37-0.166-0.37-0.37 0-0.103 0.042-0.196 0.11-0.263l0-0 4.11-3.934c-1.852-1.759-4.363-2.842-7.126-2.842-4.62 0-8.534 3.026-9.867 7.204l-0.020 0.073-4.242-1.326c1.933-6.073 7.523-10.395 14.123-10.395 4.025 0 7.675 1.608 10.342 4.217l-0.003-0.003z"></path>
</symbol>
<symbol id="icon-sun" viewBox="0 0 32 32">
<path fill="#fff" style="fill: var(--color1, #fff)" d="M15.707 25.889c0.792 0 1.444 0.599 1.528 1.368l0.008 0.167v2.456c-0.008 0.842-0.692 1.522-1.536 1.522-0.785 0-1.432-0.589-1.525-1.348l-0.001-0.007-0.009-0.167v-2.456c0-0.848 0.688-1.535 1.536-1.535zM8.509 22.907c0.278 0.278 0.45 0.661 0.45 1.085 0 0.36-0.124 0.692-0.333 0.954l0.002-0.003-0.12 0.133-1.736 1.737c-0.277 0.274-0.659 0.443-1.079 0.443-0.848 0-1.536-0.688-1.536-1.536 0-0.358 0.122-0.687 0.327-0.948l-0.003 0.003 0.12-0.133 1.736-1.736c0.278-0.278 0.661-0.45 1.085-0.45s0.808 0.172 1.085 0.45l0 0zM25.079 22.907l1.737 1.737c0.277 0.278 0.449 0.661 0.449 1.085 0 0.847-0.687 1.534-1.534 1.534-0.424 0-0.808-0.172-1.085-0.45v0l-1.739-1.733c-0.278-0.278-0.45-0.661-0.45-1.085 0-0.848 0.687-1.535 1.535-1.535 0.424 0 0.808 0.172 1.085 0.45v0zM15.708 7.839c4.344 0.005 7.863 3.526 7.868 7.869v0c-0.005 4.344-3.524 7.864-7.867 7.869h-0.001c-4.344-0.005-7.865-3.525-7.869-7.869v-0c0.005-4.344 3.525-7.865 7.869-7.869h0zM29.881 14.172c0.848 0 1.535 0.687 1.535 1.535s-0.687 1.535-1.535 1.535v0h-2.457c-0.848 0-1.535-0.687-1.535-1.535s0.687-1.535 1.535-1.535v0h2.456zM3.991 14.172c0.004-0 0.008-0 0.012-0 0.848 0 1.535 0.687 1.535 1.535 0 0.793-0.601 1.445-1.372 1.526l-0.007 0.001-0.167 0.009h-2.459c-0.003 0-0.007 0-0.011 0-0.848 0-1.535-0.687-1.535-1.535 0-0.793 0.601-1.445 1.372-1.526l0.007-0.001 0.167-0.009h2.456zM6.637 4.481l0.133 0.12 1.737 1.736c0.284 0.279 0.459 0.666 0.459 1.095 0 0.848-0.687 1.535-1.535 1.535-0.366 0-0.701-0.128-0.965-0.341l0.003 0.002-0.133-0.12-1.737-1.735c-0.317-0.282-0.515-0.691-0.515-1.147 0-0.847 0.687-1.534 1.534-1.534 0.392 0 0.749 0.147 1.020 0.388l-0.002-0.001zM26.815 4.601c0.6 0.599 0.6 1.571 0 2.171l-1.737 1.735c-0.278 0.278-0.661 0.45-1.085 0.45-0.848 0-1.535-0.687-1.535-1.535 0-0.424 0.172-0.808 0.45-1.085v0l1.737-1.737c0.599-0.599 1.571-0.599 2.171 0zM15.708 0c0.848 0 1.535 0.687 1.535 1.535v2.457c-0.025 0.829-0.703 1.491-1.535 1.491s-1.51-0.662-1.535-1.488l-0-0.002v-2.459c0.001-0.847 0.688-1.533 1.536-1.533z"></path>
</symbol>
</defs>
</svg>
